<svg id="Layer_1" data-name="Layer 1" xmlns="http://www.w3.org/2000/svg" viewBox="0 0 52.57 52.57"><defs><style>.cls-1{fill:#192751;}.cls-2{fill:#fff;}</style></defs><title>logo3</title><circle class="cls-1" cx="26.28" cy="26.28" r="26.28"/><path class="cls-2" d="M31.81,15.35a1.1,1.1,0,0,0-.26-1.4l-1.84-1.36a.82.82,0,0,0-1.22.29l-2.28,3.9,3.57,2Z" transform="translate(-5.67 -5.73)"/><path class="cls-2" d="M34.94,21.74l1.68-2.85a1.1,1.1,0,0,0-.26-1.4l-1.84-1.36a.82.82,0,0,0-1.22.29l-1.93,3.29Z" transform="translate(-5.67 -5.73)"/><path class="cls-2" d="M35.34,26.8l1.62.82a.85.85,0,0,0,1.1-.36l3-5.11a1.1,1.1,0,0,0-.26-1.4l-1.46-1.08a.82.82,0,0,0-1.22.29L35,25.32a1.08,1.08,0,0,0,.37,1.48Z" transform="translate(-5.67 -5.73)"/><path class="cls-2" d="M45.22,24l-1.46-1.08a.83.83,0,0,0-1.22.29L39.86,27.8a1.07,1.07,0,0,0,.38,1.47l1.61.82a.83.83,0,0,0,1.1-.36l2.53-4.32A1.09,1.09,0,0,0,45.22,24Z" transform="translate(-5.67 -5.73)"/><path class="cls-2" d="M42.21,32.18h0a2.25,2.25,0,0,1-1.07-.26l-8.26-4.17h-.55L36,36.19a1.07,1.07,0,0,1-.44,1.37.85.85,0,0,1-1.15-.49l-4.1-9.32H26.57a1,1,0,0,1-.9-.95,1,1,0,0,1,.88-1.06h5.58a.85.85,0,0,0,.73-.44l.54-.93a1.06,1.06,0,0,0-.34-1.45l-7.14-4.06a.82.82,0,0,0-1.13.34l-4.06,6.93a1.12,1.12,0,0,0,0,1.16l6.51,10a1.12,1.12,0,0,1,.15.84l-1.62,7.35a1,1,0,0,0,.86,1.25H40a1,1,0,0,0,.89-1V40.35a1,1,0,0,1,.39-.83l.55-.42a6.18,6.18,0,0,0,2.32-4.93V31.23a2.53,2.53,0,0,1-1.94.95Z" transform="translate(-5.67 -5.73)"/></svg>